<svg width="17" height="17" viewBox="0 0 17 17" fill="none" xmlns="http://www.w3.org/2000/svg">
<path d="M8.50033 3.5C5.16699 3.5 2.32033 5.57333 1.16699 8.5C2.32033 11.4267 5.16699 13.5 8.50033 13.5C11.8337 13.5 14.6803 11.4267 15.8337 8.5C14.6803 5.57333 11.8337 3.5 8.50033 3.5ZM8.50033 11.8333C6.66033 11.8333 5.16699 10.34 5.16699 8.5C5.16699 6.66 6.66033 5.16667 8.50033 5.16667C10.3403 5.16667 11.8337 6.66 11.8337 8.5C11.8337 10.34 10.3403 11.8333 8.50033 11.8333ZM8.50033 6.5C7.39366 6.5 6.50033 7.39333 6.50033 8.5C6.50033 9.60667 7.39366 10.5 8.50033 10.5C9.60699 10.5 10.5003 9.60667 10.5003 8.5C10.5003 7.39333 9.60699 6.5 8.50033 6.5Z" fill="white"/>
</svg>
