<svg width="21" height="20" viewBox="0 0 21 20" fill="none" xmlns="http://www.w3.org/2000/svg">
<path d="M6.51074 16C5.41074 16 4.52074 16.9 4.52074 18C4.52074 19.1 5.41074 20 6.51074 20C7.61074 20 8.51074 19.1 8.51074 18C8.51074 16.9 7.61074 16 6.51074 16ZM0.510742 1C0.510742 1.55 0.960742 2 1.51074 2H2.51074L6.11074 9.59L4.76074 12.03C4.03074 13.37 4.99074 15 6.51074 15H17.5107C18.0607 15 18.5107 14.55 18.5107 14C18.5107 13.45 18.0607 13 17.5107 13H6.51074L7.61074 11H15.0607C15.8107 11 16.4707 10.59 16.8107 9.97L20.3907 3.48C20.7607 2.82 20.2807 2 19.5207 2H4.72074L4.05074 0.57C3.89074 0.22 3.53074 0 3.15074 0H1.51074C0.960742 0 0.510742 0.45 0.510742 1ZM16.5107 16C15.4107 16 14.5207 16.9 14.5207 18C14.5207 19.1 15.4107 20 16.5107 20C17.6107 20 18.5107 19.1 18.5107 18C18.5107 16.9 17.6107 16 16.5107 16Z" fill="white" />
</svg>
