<svg width="14" height="14" viewBox="0 0 14 14" fill="none" xmlns="http://www.w3.org/2000/svg">
<path d="M9.42954 9.51157L13.0825 13.1645M6.18248 10.7292C6.76879 10.7292 7.34937 10.6137 7.89105 10.3894C8.43273 10.165 8.92492 9.83612 9.3395 9.42153C9.75409 9.00695 10.083 8.51476 10.3073 7.97308C10.5317 7.4314 10.6472 6.85082 10.6472 6.26451C10.6472 5.6782 10.5317 5.09762 10.3073 4.55594C10.083 4.01426 9.75409 3.52207 9.3395 3.10749C8.92492 2.6929 8.43273 2.36403 7.89105 2.13966C7.34937 1.91529 6.76879 1.7998 6.18248 1.7998C4.99837 1.7998 3.86275 2.27019 3.02546 3.10749C2.18816 3.94478 1.71777 5.0804 1.71777 6.26451C1.71777 7.44862 2.18816 8.58424 3.02546 9.42153C3.86275 10.2588 4.99837 10.7292 6.18248 10.7292Z" stroke="white" stroke-width="1.62353"/>
</svg>
