<svg width="19" height="18" viewBox="0 0 19 18" fill="none" xmlns="http://www.w3.org/2000/svg">
<path d="M2.01465 8H6.01465C7.11465 8 8.01465 7.1 8.01465 6V2C8.01465 0.9 7.11465 0 6.01465 0H2.01465C0.914648 0 0.0146484 0.9 0.0146484 2V6C0.0146484 7.1 0.914648 8 2.01465 8Z" fill="white" />
<path d="M2.01465 18H6.01465C7.11465 18 8.01465 17.1 8.01465 16V12C8.01465 10.9 7.11465 10 6.01465 10H2.01465C0.914648 10 0.0146484 10.9 0.0146484 12V16C0.0146484 17.1 0.914648 18 2.01465 18Z" fill="white" />
<path d="M10.0146 2V6C10.0146 7.1 10.9146 8 12.0146 8H16.0146C17.1146 8 18.0146 7.1 18.0146 6V2C18.0146 0.9 17.1146 0 16.0146 0H12.0146C10.9146 0 10.0146 0.9 10.0146 2Z" fill="white" />
<path d="M12.0146 18H16.0146C17.1146 18 18.0146 17.1 18.0146 16V12C18.0146 10.9 17.1146 10 16.0146 10H12.0146C10.9146 10 10.0146 10.9 10.0146 12V16C10.0146 17.1 10.9146 18 12.0146 18Z" fill="white" />
</svg>
