<svg width="14" height="12" viewBox="0 0 14 12" fill="none" xmlns="http://www.w3.org/2000/svg">
<path fill-rule="evenodd" clip-rule="evenodd" d="M9.80927 0.948588C8.62461 0.948588 7.58738 1.45802 6.94084 2.31912C6.29429 1.45802 5.25707 0.948588 4.07241 0.948588C2.10893 0.950801 0.517767 2.54196 0.515554 4.50544C0.515554 8.52124 6.46984 11.7717 6.72341 11.906C6.85916 11.979 7.02251 11.979 7.15826 11.906C7.41183 11.7717 13.3661 8.52124 13.3661 4.50544C13.3639 2.54196 11.7727 0.950801 9.80927 0.948588ZM6.94084 10.9766C5.89329 10.3662 1.43345 7.58556 1.43345 4.50544C1.43535 3.04877 2.61574 1.86838 4.07241 1.86649C5.18823 1.86649 6.12506 2.46082 6.51631 3.41544C6.58703 3.5876 6.75472 3.7 6.94084 3.7C7.12696 3.7 7.29465 3.5876 7.36537 3.41544C7.75662 2.4591 8.69345 1.86649 9.80927 1.86649C11.2659 1.86838 12.4463 3.04877 12.4482 4.50544C12.4482 7.58097 7.98724 10.3656 6.94084 10.9766Z" fill="#121417"/>
</svg>
